<svg xmlns="http://www.w3.org/2000/svg" data-name="Layer 1" viewBox="0 0 100 125" x="0px" y="0px"><title>Artboard 37</title><path d="M50,19a31,31,0,0,0,0,62h3V75H50A25,25,0,1,1,75,50v4a5,5,0,0,1-10,0V50a15.05,15.05,0,1,0-4.06,10.23A11,11,0,0,0,81,54V50A31,31,0,0,0,50,19Zm0,40a9,9,0,1,1,9-9A9,9,0,0,1,50,59Z"/><text x="0" y="115" fill="#000000" font-size="5px" font-weight="bold" font-family="'Helvetica Neue', Helvetica, Arial-Unicode, Arial, Sans-serif">Created by Gregor Cresnar</text><text x="0" y="120" fill="#000000" font-size="5px" font-weight="bold" font-family="'Helvetica Neue', Helvetica, Arial-Unicode, Arial, Sans-serif">from the Noun Project</text></svg>