<svg xmlns="http://www.w3.org/2000/svg" viewBox="0 0 52 85" x="0px" y="0px"><path fill="#000000" d="M678,88 L702,88 C705.313708,88 708,85.3137085 708,82 L708,73.7769836 C703.992023,72.8675252 701,69.2831748 701,65 C701,60.0294373 705.029437,56 710,56 C714.970563,56 719,60.0294373 719,65 C719,69.2831748 716.007977,72.8675252 712,73.7769836 L712,82 C712,87.5228475 707.522847,92 702,92 L678,92 L678,106.223016 C682.007977,107.132475 685,110.716825 685,115 C685,119.970563 680.970563,124 676,124 C671.029437,124 667,119.970563 667,115 C667,110.716825 669.992023,107.132475 674,106.223016 L674,73.7769836 C669.992023,72.8675252 667,69.2831748 667,65 C667,60.0294373 671.029437,56 676,56 C680.970563,56 685,60.0294373 685,65 C685,69.2831748 682.007977,72.8675252 678,73.7769836 L678,88 Z M676,70 C678.761424,70 681,67.7614237 681,65 C681,62.2385763 678.761424,60 676,60 C673.238576,60 671,62.2385763 671,65 C671,67.7614237 673.238576,70 676,70 Z M676,120 C678.761424,120 681,117.761424 681,115 C681,112.238576 678.761424,110 676,110 C673.238576,110 671,112.238576 671,115 C671,117.761424 673.238576,120 676,120 Z M710,70 C712.761424,70 715,67.7614237 715,65 C715,62.2385763 712.761424,60 710,60 C707.238576,60 705,62.2385763 705,65 C705,67.7614237 707.238576,70 710,70 Z" transform="translate(-667 -56)"/><text x="0" y="83" fill="#000000" font-size="5px" font-weight="bold" font-family="'Helvetica Neue', Helvetica, Arial-Unicode, Arial, Sans-serif">Created by Andrejs Kirma</text><text x="0" y="88" fill="#000000" font-size="5px" font-weight="bold" font-family="'Helvetica Neue', Helvetica, Arial-Unicode, Arial, Sans-serif">from the Noun Project</text></svg>