<svg xmlns="http://www.w3.org/2000/svg" xmlns:xlink="http://www.w3.org/1999/xlink" version="1.1" x="0px" y="0px" viewBox="0 0 100 125" enable-background="new 0 0 100 100" xml:space="preserve"><g><path d="M55.1262,44.8737c1.76953,1.77051,3.08301,3.87207,3.5127,5.62207c0.22412,0.91309,1.0415,1.52344,1.94092,1.52344   c0.15771,0,0.31836-0.01855,0.47852-0.05762c1.07275-0.26367,1.72852-1.34668,1.46533-2.41895   c-0.60547-2.4668-2.271-5.19922-4.56934-7.49707c-2.29736-2.29785-5.0293-3.96289-7.49561-4.56934   c-1.07422-0.26367-2.15625,0.3916-2.41992,1.46484s0.39258,2.15625,1.46484,2.41992   C51.25511,41.79166,53.35667,43.10416,55.1262,44.8737z"/><path d="M72.09641,27.90299c-4.87842-4.87891-10.86865-8.37598-16.86767-9.84863c-1.07275-0.2627-2.15576,0.39258-2.41895,1.46582   c-0.26318,1.07227,0.39307,2.15527,1.46582,2.41895c5.29883,1.30078,10.62353,4.42285,14.99267,8.79199   c4.36865,4.36914,7.49121,9.69434,8.79297,14.99414c0.22412,0.91211,1.0415,1.52246,1.94092,1.52246   c0.15771,0,0.31836-0.01855,0.47852-0.05762c1.07275-0.26367,1.72852-1.34668,1.46533-2.41992   C80.47239,38.77213,76.97434,32.78092,72.09641,27.90299z"/><path d="M65.02561,34.97428c-3.60546-3.60547-7.93213-6.16504-12.18213-7.20898c-1.07666-0.2627-2.15625,0.39258-2.41943,1.46582   c-0.26318,1.07227,0.39307,2.15527,1.46533,2.41895c3.55078,0.87207,7.21191,3.05664,10.30762,6.15234   c3.0957,3.09668,5.28076,6.75684,6.15283,10.30859c0.22412,0.91211,1.0415,1.52246,1.94092,1.52246   c0.15771,0,0.31836-0.01855,0.47852-0.05762c1.07275-0.26367,1.72852-1.34668,1.46533-2.41992   C71.19065,42.90592,68.63059,38.57975,65.02561,34.97428z"/><path d="M40.53196,38.65788c1.59912-2.91406,1.07422-6.5918-1.27686-8.94238l-5.55273-5.55273   c-1.42188-1.42188-3.3125-2.20508-5.32276-2.20508c-2.01074,0-3.90137,0.7832-5.32178,2.2041l-1.04541,1.04492   c-0.61084,0.61133-1.09326,1.28516-1.43457,2.00488c-5.86377,12.36719-1.49561,29.46875,10.62305,41.58789   c8.51612,8.5166,19.4917,13.20508,29.55811,13.2041c4.25732,0,8.35351-0.83887,12.03027-2.58203   c0.7207-0.3418,1.396-0.8252,2.00488-1.43555l1.04395-1.04297c2.93408-2.93555,2.93359-7.71094-0.00049-10.64453l-5.55322-5.55371   c-2.34961-2.35059-6.02783-2.875-8.94238-1.27734l-8.34619,4.5791c-1.05713,0.58008-2.34717,0.58887-3.36621,0.01758   c-2.81738-1.57324-5.43652-3.56152-7.78418-5.90918c-2.34668-2.34668-4.33496-4.96582-5.90967-7.78516   c-0.56934-1.01855-0.5625-2.30762,0.01758-3.36621L40.53196,38.65788z M32.44358,52.32096   c1.75439,3.14062,3.96631,6.05566,6.57373,8.66211c2.6084,2.6084,5.52246,4.82031,8.66113,6.57324   c2.24365,1.25391,4.9502,1.25293,7.24072-0.00195l8.34668-4.5791c1.36572-0.74902,3.08935-0.50293,4.19043,0.59766l5.55322,5.55371   c1.37451,1.375,1.37451,3.6123,0,4.98828l-1.04443,1.04395c-0.28564,0.28516-0.58545,0.50391-0.89062,0.64844   c-10.8667,5.15234-26.10156,1.1084-37.04541-9.83594c-10.94434-10.94531-14.98926-26.17871-9.8374-37.0459   c0.14502-0.30469,0.36377-0.60449,0.64941-0.89062l1.04492-1.04395c0.66602-0.66602,1.55176-1.0332,2.49365-1.0332   s1.82764,0.36719,2.49414,1.0332l5.55322,5.55273c1.10156,1.10156,1.34766,2.8252,0.59814,4.19043l-4.5791,8.34668   c0,0,0,0-0.00049,0.00098C31.19065,47.37077,31.18968,50.07682,32.44358,52.32096z"/></g><text x="0" y="115" fill="#000000" font-size="5px" font-weight="bold" font-family="'Helvetica Neue', Helvetica, Arial-Unicode, Arial, Sans-serif">Created by mikicon</text><text x="0" y="120" fill="#000000" font-size="5px" font-weight="bold" font-family="'Helvetica Neue', Helvetica, Arial-Unicode, Arial, Sans-serif">from the Noun Project</text></svg>