<svg xmlns="http://www.w3.org/2000/svg" data-name="Layer 1" viewBox="0 0 100 125" x="0px" y="0px"><title>Twitter</title><path d="M83,14.62a3.34,3.34,0,0,0-4.5-.68L72,18.45a16.32,16.32,0,0,0-11.94-5.07A16.7,16.7,0,0,0,43.39,30.05a14.59,14.59,0,0,0,.45,3.83c-7.88-1.69-12.5-7.43-14.42-17.8a3.39,3.39,0,0,0-2.6-2.71,3.23,3.23,0,0,0-3.48,1.24c-.23.35-18.82,26.14,8.11,48.11C28.86,68.35,21.08,73.08,18,74.54a3.48,3.48,0,0,0-1.8,3.84A3.38,3.38,0,0,0,19.51,81h5.86c34.25,0,49.79-17,50.24-55l7.09-6.76A3.35,3.35,0,0,0,83,14.62ZM30.88,74.09c3.49-3,6.87-7,7.88-11.71a3.38,3.38,0,0,0-1.24-3.49c-16-12-15-25.23-12.27-33.12C29.53,35.91,37.64,41.09,49.13,41.2a3.29,3.29,0,0,0,3-1.8,3,3,0,0,0-.23-3.49A9.77,9.77,0,0,1,50,30.16a9.92,9.92,0,0,1,9.91-9.91,9.71,9.71,0,0,1,8.33,4.62,2.81,2.81,0,0,0,.46.56C68.62,57.87,57.46,72.4,30.88,74.09Z"/><text x="0" y="115" fill="#000000" font-size="5px" font-weight="bold" font-family="'Helvetica Neue', Helvetica, Arial-Unicode, Arial, Sans-serif">Created by Fengquan Li</text><text x="0" y="120" fill="#000000" font-size="5px" font-weight="bold" font-family="'Helvetica Neue', Helvetica, Arial-Unicode, Arial, Sans-serif">from the Noun Project</text></svg>