<svg xmlns="http://www.w3.org/2000/svg" version="1.1" xmlns:xlink="http://www.w3.org/1999/xlink" xmlns:svgjs="http://svgjs.com/svgjs" width="1199" height="560" preserveAspectRatio="none" viewBox="0 0 1199 560"><g mask="url(&quot;#SvgjsMask1037&quot;)" fill="none"><rect width="1199" height="560" x="0" y="0" fill="rgba(26, 27, 26, 1)"></rect><g mask="url(&quot;#SvgjsMask1038&quot;)"><path d="M987.5 312.5L962.5 287.5L937.5 287.5L912.5 312.5L887.5 312.5M962.5 312.5L937.5 337.5L912.5 337.5L887.5 337.5M1012.5 287.5L987.5 287.5M1212.5 287.5L1187.5 287.5L1162.5 287.5L1137.5 287.5L1112.5 287.5L1087.5 287.5L1062.5 287.5L1037.5 287.5L1012.5 287.5L987.5 312.5L962.5 312.5L937.5 312.5" stroke="rgba(0, 255, 35, 1)" stroke-width="4.17"></path><path d="M931.25 312.5 a6.25 6.25 0 1 0 12.5 0 a6.25 6.25 0 1 0 -12.5 0zM881.25 312.5 a6.25 6.25 0 1 0 12.5 0 a6.25 6.25 0 1 0 -12.5 0zM881.25 337.5 a6.25 6.25 0 1 0 12.5 0 a6.25 6.25 0 1 0 -12.5 0zM981.25 287.5 a6.25 6.25 0 1 0 12.5 0 a6.25 6.25 0 1 0 -12.5 0z" fill="rgba(0, 255, 35, 1)"></path><path d="M1162.5 262.5L1137.5 237.5L1112.5 237.5L1087.5 237.5L1062.5 237.5M987.5 262.5L962.5 237.5L937.5 237.5M1012.5 262.5L987.5 237.5M1212.5 262.5L1187.5 262.5L1162.5 262.5L1137.5 262.5L1112.5 262.5L1087.5 262.5L1062.5 262.5L1037.5 262.5L1012.5 262.5L987.5 262.5L962.5 262.5L937.5 262.5" stroke="rgba(0, 255, 35, 1)" stroke-width="4.17"></path><path d="M931.25 262.5 a6.25 6.25 0 1 0 12.5 0 a6.25 6.25 0 1 0 -12.5 0zM1056.25 237.5 a6.25 6.25 0 1 0 12.5 0 a6.25 6.25 0 1 0 -12.5 0zM931.25 237.5 a6.25 6.25 0 1 0 12.5 0 a6.25 6.25 0 1 0 -12.5 0zM981.25 237.5 a6.25 6.25 0 1 0 12.5 0 a6.25 6.25 0 1 0 -12.5 0z" fill="rgba(0, 255, 35, 1)"></path><path d="M862.5 362.5L837.5 337.5L812.5 337.5M987.5 337.5L962.5 337.5M1212.5 312.5L1187.5 312.5L1162.5 312.5L1137.5 312.5L1112.5 312.5L1087.5 312.5L1062.5 312.5L1037.5 312.5L1012.5 312.5L987.5 337.5L962.5 362.5L937.5 362.5L912.5 362.5L887.5 362.5L862.5 362.5L837.5 362.5" stroke="rgba(0, 255, 35, 1)" stroke-width="4.17"></path><path d="M831.25 362.5 a6.25 6.25 0 1 0 12.5 0 a6.25 6.25 0 1 0 -12.5 0zM806.25 337.5 a6.25 6.25 0 1 0 12.5 0 a6.25 6.25 0 1 0 -12.5 0zM956.25 337.5 a6.25 6.25 0 1 0 12.5 0 a6.25 6.25 0 1 0 -12.5 0z" fill="rgba(0, 255, 35, 1)"></path><path d="M1212.5 237.5L1187.5 237.5" stroke="rgba(0, 255, 35, 1)" stroke-width="4.17"></path><path d="M1181.25 237.5 a6.25 6.25 0 1 0 12.5 0 a6.25 6.25 0 1 0 -12.5 0z" fill="rgba(0, 255, 35, 1)"></path><path d="M862.5 387.5L837.5 412.5L812.5 437.5L787.5 437.5M1062.5 337.5L1037.5 362.5L1012.5 387.5L987.5 387.5M812.5 412.5L787.5 387.5L762.5 387.5M912.5 387.5L887.5 412.5L862.5 412.5M1212.5 337.5L1187.5 337.5L1162.5 337.5L1137.5 337.5L1112.5 337.5L1087.5 337.5L1062.5 337.5L1037.5 337.5L1012.5 337.5L987.5 362.5L962.5 387.5L937.5 387.5L912.5 387.5L887.5 387.5L862.5 387.5L837.5 387.5L812.5 412.5L787.5 412.5" stroke="rgba(0, 255, 35, 1)" stroke-width="4.17"></path><path d="M781.25 412.5 a6.25 6.25 0 1 0 12.5 0 a6.25 6.25 0 1 0 -12.5 0zM781.25 437.5 a6.25 6.25 0 1 0 12.5 0 a6.25 6.25 0 1 0 -12.5 0zM981.25 387.5 a6.25 6.25 0 1 0 12.5 0 a6.25 6.25 0 1 0 -12.5 0zM756.25 387.5 a6.25 6.25 0 1 0 12.5 0 a6.25 6.25 0 1 0 -12.5 0zM856.25 412.5 a6.25 6.25 0 1 0 12.5 0 a6.25 6.25 0 1 0 -12.5 0z" fill="rgba(0, 255, 35, 1)"></path><path d="M1012.5 212.5L987.5 187.5L962.5 187.5L937.5 187.5L912.5 187.5L887.5 187.5M862.5 237.5L837.5 262.5L812.5 262.5L787.5 262.5L762.5 262.5M887.5 237.5L862.5 212.5L837.5 212.5L812.5 212.5M787.5 237.5L762.5 212.5L737.5 212.5L712.5 212.5M1062.5 212.5L1037.5 187.5L1012.5 187.5M1212.5 212.5L1187.5 212.5L1162.5 212.5L1137.5 212.5L1112.5 212.5L1087.5 212.5L1062.5 212.5L1037.5 212.5L1012.5 212.5L987.5 212.5L962.5 212.5L937.5 212.5L912.5 237.5L887.5 237.5L862.5 237.5L837.5 237.5L812.5 237.5L787.5 237.5L762.5 237.5L737.5 237.5" stroke="rgba(0, 255, 35, 1)" stroke-width="4.17"></path><path d="M731.25 237.5 a6.25 6.25 0 1 0 12.5 0 a6.25 6.25 0 1 0 -12.5 0zM881.25 187.5 a6.25 6.25 0 1 0 12.5 0 a6.25 6.25 0 1 0 -12.5 0zM756.25 262.5 a6.25 6.25 0 1 0 12.5 0 a6.25 6.25 0 1 0 -12.5 0zM806.25 212.5 a6.25 6.25 0 1 0 12.5 0 a6.25 6.25 0 1 0 -12.5 0zM706.25 212.5 a6.25 6.25 0 1 0 12.5 0 a6.25 6.25 0 1 0 -12.5 0zM1006.25 187.5 a6.25 6.25 0 1 0 12.5 0 a6.25 6.25 0 1 0 -12.5 0z" fill="rgba(0, 255, 35, 1)"></path><path d="M1212.5 362.5L1187.5 362.5L1162.5 362.5" stroke="rgba(0, 255, 35, 1)" stroke-width="4.17"></path><path d="M1156.25 362.5 a6.25 6.25 0 1 0 12.5 0 a6.25 6.25 0 1 0 -12.5 0z" fill="rgba(0, 255, 35, 1)"></path><path d="M1087.5 162.5L1062.5 187.5M1137.5 162.5L1112.5 187.5L1087.5 187.5M887.5 162.5L862.5 162.5L837.5 162.5L812.5 162.5M1212.5 187.5L1187.5 187.5L1162.5 187.5L1137.5 162.5L1112.5 162.5L1087.5 162.5L1062.5 162.5L1037.5 162.5L1012.5 162.5L987.5 162.5L962.5 162.5L937.5 162.5L912.5 162.5L887.5 162.5L862.5 187.5" stroke="rgba(0, 255, 35, 1)" stroke-width="4.17"></path><path d="M856.25 187.5 a6.25 6.25 0 1 0 12.5 0 a6.25 6.25 0 1 0 -12.5 0zM1056.25 187.5 a6.25 6.25 0 1 0 12.5 0 a6.25 6.25 0 1 0 -12.5 0zM1081.25 187.5 a6.25 6.25 0 1 0 12.5 0 a6.25 6.25 0 1 0 -12.5 0zM806.25 162.5 a6.25 6.25 0 1 0 12.5 0 a6.25 6.25 0 1 0 -12.5 0z" fill="rgba(0, 255, 35, 1)"></path><path d="M1187.5 387.5L1162.5 412.5L1137.5 412.5L1112.5 412.5M1112.5 387.5L1087.5 362.5L1062.5 362.5M1212.5 387.5L1187.5 387.5L1162.5 387.5L1137.5 387.5L1112.5 387.5L1087.5 387.5" stroke="rgba(0, 255, 35, 1)" stroke-width="4.17"></path><path d="M1081.25 387.5 a6.25 6.25 0 1 0 12.5 0 a6.25 6.25 0 1 0 -12.5 0zM1106.25 412.5 a6.25 6.25 0 1 0 12.5 0 a6.25 6.25 0 1 0 -12.5 0zM1056.25 362.5 a6.25 6.25 0 1 0 12.5 0 a6.25 6.25 0 1 0 -12.5 0z" fill="rgba(0, 255, 35, 1)"></path><path d="M1137.5 137.5L1112.5 112.5L1087.5 112.5M912.5 137.5L887.5 112.5L862.5 112.5M1037.5 137.5L1012.5 112.5L987.5 112.5L962.5 112.5M1062.5 137.5L1037.5 112.5L1012.5 87.5L987.5 87.5L962.5 87.5M1212.5 162.5L1187.5 162.5L1162.5 162.5L1137.5 137.5L1112.5 137.5L1087.5 137.5L1062.5 137.5L1037.5 137.5L1012.5 137.5L987.5 137.5L962.5 137.5L937.5 137.5L912.5 137.5L887.5 137.5L862.5 137.5L837.5 137.5" stroke="rgba(0, 255, 35, 1)" stroke-width="4.17"></path><path d="M831.25 137.5 a6.25 6.25 0 1 0 12.5 0 a6.25 6.25 0 1 0 -12.5 0zM1081.25 112.5 a6.25 6.25 0 1 0 12.5 0 a6.25 6.25 0 1 0 -12.5 0zM856.25 112.5 a6.25 6.25 0 1 0 12.5 0 a6.25 6.25 0 1 0 -12.5 0zM956.25 112.5 a6.25 6.25 0 1 0 12.5 0 a6.25 6.25 0 1 0 -12.5 0zM956.25 87.5 a6.25 6.25 0 1 0 12.5 0 a6.25 6.25 0 1 0 -12.5 0z" fill="rgba(0, 255, 35, 1)"></path></g></g><defs><mask id="SvgjsMask1037"><rect width="1199" height="560" fill="#ffffff"></rect></mask><mask id="SvgjsMask1038"><rect width="1199" height="560" fill="white"></rect><path d="M934.37 312.5 a3.13 3.13 0 1 0 6.26 0 a3.13 3.13 0 1 0 -6.26 0zM884.37 312.5 a3.13 3.13 0 1 0 6.26 0 a3.13 3.13 0 1 0 -6.26 0zM884.37 337.5 a3.13 3.13 0 1 0 6.26 0 a3.13 3.13 0 1 0 -6.26 0zM984.37 287.5 a3.13 3.13 0 1 0 6.26 0 a3.13 3.13 0 1 0 -6.26 0z" fill="black"></path><path d="M934.37 262.5 a3.13 3.13 0 1 0 6.26 0 a3.13 3.13 0 1 0 -6.26 0zM1059.37 237.5 a3.13 3.13 0 1 0 6.26 0 a3.13 3.13 0 1 0 -6.26 0zM934.37 237.5 a3.13 3.13 0 1 0 6.26 0 a3.13 3.13 0 1 0 -6.26 0zM984.37 237.5 a3.13 3.13 0 1 0 6.26 0 a3.13 3.13 0 1 0 -6.26 0z" fill="black"></path><path d="M834.37 362.5 a3.13 3.13 0 1 0 6.26 0 a3.13 3.13 0 1 0 -6.26 0zM809.37 337.5 a3.13 3.13 0 1 0 6.26 0 a3.13 3.13 0 1 0 -6.26 0zM959.37 337.5 a3.13 3.13 0 1 0 6.26 0 a3.13 3.13 0 1 0 -6.26 0z" fill="black"></path><path d="M1184.37 237.5 a3.13 3.13 0 1 0 6.26 0 a3.13 3.13 0 1 0 -6.26 0z" fill="black"></path><path d="M784.37 412.5 a3.13 3.13 0 1 0 6.26 0 a3.13 3.13 0 1 0 -6.26 0zM784.37 437.5 a3.13 3.13 0 1 0 6.26 0 a3.13 3.13 0 1 0 -6.26 0zM984.37 387.5 a3.13 3.13 0 1 0 6.26 0 a3.13 3.13 0 1 0 -6.26 0zM759.37 387.5 a3.13 3.13 0 1 0 6.26 0 a3.13 3.13 0 1 0 -6.26 0zM859.37 412.5 a3.13 3.13 0 1 0 6.26 0 a3.13 3.13 0 1 0 -6.26 0z" fill="black"></path><path d="M734.37 237.5 a3.13 3.13 0 1 0 6.26 0 a3.13 3.13 0 1 0 -6.26 0zM884.37 187.5 a3.13 3.13 0 1 0 6.26 0 a3.13 3.13 0 1 0 -6.26 0zM759.37 262.5 a3.13 3.13 0 1 0 6.26 0 a3.13 3.13 0 1 0 -6.26 0zM809.37 212.5 a3.13 3.13 0 1 0 6.26 0 a3.13 3.13 0 1 0 -6.26 0zM709.37 212.5 a3.13 3.13 0 1 0 6.26 0 a3.13 3.13 0 1 0 -6.26 0zM1009.37 187.5 a3.13 3.13 0 1 0 6.26 0 a3.13 3.13 0 1 0 -6.26 0z" fill="black"></path><path d="M1159.37 362.5 a3.13 3.13 0 1 0 6.26 0 a3.13 3.13 0 1 0 -6.26 0z" fill="black"></path><path d="M859.37 187.5 a3.13 3.13 0 1 0 6.26 0 a3.13 3.13 0 1 0 -6.26 0zM1059.37 187.5 a3.13 3.13 0 1 0 6.26 0 a3.13 3.13 0 1 0 -6.26 0zM1084.37 187.5 a3.13 3.13 0 1 0 6.26 0 a3.13 3.13 0 1 0 -6.26 0zM809.37 162.5 a3.13 3.13 0 1 0 6.26 0 a3.13 3.13 0 1 0 -6.26 0z" fill="black"></path><path d="M1084.37 387.5 a3.13 3.13 0 1 0 6.26 0 a3.13 3.13 0 1 0 -6.26 0zM1109.37 412.5 a3.13 3.13 0 1 0 6.26 0 a3.13 3.13 0 1 0 -6.26 0zM1059.37 362.5 a3.13 3.13 0 1 0 6.26 0 a3.13 3.13 0 1 0 -6.26 0z" fill="black"></path><path d="M834.37 137.5 a3.13 3.13 0 1 0 6.26 0 a3.13 3.13 0 1 0 -6.26 0zM1084.37 112.5 a3.13 3.13 0 1 0 6.26 0 a3.13 3.13 0 1 0 -6.26 0zM859.37 112.5 a3.13 3.13 0 1 0 6.26 0 a3.13 3.13 0 1 0 -6.26 0zM959.37 112.5 a3.13 3.13 0 1 0 6.26 0 a3.13 3.13 0 1 0 -6.26 0zM959.37 87.5 a3.13 3.13 0 1 0 6.26 0 a3.13 3.13 0 1 0 -6.26 0z" fill="black"></path></mask></defs></svg>