<svg xmlns="http://www.w3.org/2000/svg" version="1.1" xmlns:xlink="http://www.w3.org/1999/xlink" xmlns:svgjs="http://svgjs.com/svgjs" width="768" height="560" preserveAspectRatio="none" viewBox="0 0 768 560"><g mask="url(&quot;#SvgjsMask1049&quot;)" fill="none"><rect width="768" height="560" x="0" y="0" fill="rgba(26, 27, 26, 1)"></rect><g mask="url(&quot;#SvgjsMask1050&quot;)"><path d="M737.5 287.5L712.5 312.5L687.5 312.5L662.5 337.5L637.5 337.5M537.5 312.5L512.5 287.5M587.5 312.5L562.5 287.5M787.5 287.5L762.5 287.5L737.5 287.5L712.5 287.5L687.5 287.5L662.5 312.5L637.5 312.5L612.5 312.5L587.5 312.5L562.5 312.5L537.5 312.5L512.5 312.5" stroke="rgba(0, 255, 35, 1)" stroke-width="4.17"></path><path d="M506.25 312.5 a6.25 6.25 0 1 0 12.5 0 a6.25 6.25 0 1 0 -12.5 0zM631.25 337.5 a6.25 6.25 0 1 0 12.5 0 a6.25 6.25 0 1 0 -12.5 0zM506.25 287.5 a6.25 6.25 0 1 0 12.5 0 a6.25 6.25 0 1 0 -12.5 0zM556.25 287.5 a6.25 6.25 0 1 0 12.5 0 a6.25 6.25 0 1 0 -12.5 0z" fill="rgba(0, 255, 35, 1)"></path><path d="M512.5 262.5L487.5 237.5L462.5 237.5M562.5 262.5L537.5 237.5L512.5 237.5L487.5 212.5M662.5 262.5L637.5 287.5L612.5 287.5M787.5 262.5L762.5 262.5L737.5 262.5L712.5 262.5L687.5 262.5L662.5 262.5L637.5 262.5L612.5 262.5L587.5 262.5L562.5 262.5L537.5 262.5L512.5 262.5L487.5 262.5L462.5 262.5" stroke="rgba(0, 255, 35, 1)" stroke-width="4.17"></path><path d="M456.25 262.5 a6.25 6.25 0 1 0 12.5 0 a6.25 6.25 0 1 0 -12.5 0zM456.25 237.5 a6.25 6.25 0 1 0 12.5 0 a6.25 6.25 0 1 0 -12.5 0zM481.25 212.5 a6.25 6.25 0 1 0 12.5 0 a6.25 6.25 0 1 0 -12.5 0zM606.25 287.5 a6.25 6.25 0 1 0 12.5 0 a6.25 6.25 0 1 0 -12.5 0z" fill="rgba(0, 255, 35, 1)"></path><path d="M787.5 237.5L762.5 237.5L737.5 237.5L712.5 237.5L687.5 237.5L662.5 237.5L637.5 237.5" stroke="rgba(0, 255, 35, 1)" stroke-width="4.17"></path><path d="M631.25 237.5 a6.25 6.25 0 1 0 12.5 0 a6.25 6.25 0 1 0 -12.5 0z" fill="rgba(0, 255, 35, 1)"></path><path d="M712.5 337.5L687.5 337.5M587.5 362.5L562.5 362.5L537.5 362.5M762.5 337.5L737.5 312.5M787.5 337.5L762.5 337.5L737.5 337.5L712.5 337.5L687.5 362.5L662.5 362.5L637.5 362.5L612.5 362.5L587.5 362.5L562.5 337.5" stroke="rgba(0, 255, 35, 1)" stroke-width="4.17"></path><path d="M556.25 337.5 a6.25 6.25 0 1 0 12.5 0 a6.25 6.25 0 1 0 -12.5 0zM681.25 337.5 a6.25 6.25 0 1 0 12.5 0 a6.25 6.25 0 1 0 -12.5 0zM531.25 362.5 a6.25 6.25 0 1 0 12.5 0 a6.25 6.25 0 1 0 -12.5 0zM731.25 312.5 a6.25 6.25 0 1 0 12.5 0 a6.25 6.25 0 1 0 -12.5 0z" fill="rgba(0, 255, 35, 1)"></path><path d="M787.5 212.5L762.5 212.5L737.5 212.5L712.5 212.5L687.5 212.5L662.5 212.5L637.5 212.5" stroke="rgba(0, 255, 35, 1)" stroke-width="4.17"></path><path d="M631.25 212.5 a6.25 6.25 0 1 0 12.5 0 a6.25 6.25 0 1 0 -12.5 0z" fill="rgba(0, 255, 35, 1)"></path><path d="M737.5 362.5L712.5 387.5L687.5 412.5L662.5 412.5M787.5 362.5L762.5 362.5L737.5 362.5L712.5 362.5L687.5 387.5" stroke="rgba(0, 255, 35, 1)" stroke-width="4.17"></path><path d="M681.25 387.5 a6.25 6.25 0 1 0 12.5 0 a6.25 6.25 0 1 0 -12.5 0zM656.25 412.5 a6.25 6.25 0 1 0 12.5 0 a6.25 6.25 0 1 0 -12.5 0z" fill="rgba(0, 255, 35, 1)"></path><path d="M487.5 187.5L462.5 162.5L437.5 162.5M662.5 187.5L637.5 162.5M587.5 187.5L562.5 162.5M787.5 187.5L762.5 187.5L737.5 187.5L712.5 187.5L687.5 187.5L662.5 187.5L637.5 187.5L612.5 187.5L587.5 187.5L562.5 187.5L537.5 187.5L512.5 187.5L487.5 187.5L462.5 187.5L437.5 187.5" stroke="rgba(0, 255, 35, 1)" stroke-width="4.17"></path><path d="M431.25 187.5 a6.25 6.25 0 1 0 12.5 0 a6.25 6.25 0 1 0 -12.5 0zM431.25 162.5 a6.25 6.25 0 1 0 12.5 0 a6.25 6.25 0 1 0 -12.5 0zM631.25 162.5 a6.25 6.25 0 1 0 12.5 0 a6.25 6.25 0 1 0 -12.5 0zM556.25 162.5 a6.25 6.25 0 1 0 12.5 0 a6.25 6.25 0 1 0 -12.5 0z" fill="rgba(0, 255, 35, 1)"></path><path d="M762.5 412.5L737.5 387.5M787.5 387.5L762.5 412.5L737.5 412.5" stroke="rgba(0, 255, 35, 1)" stroke-width="4.17"></path><path d="M731.25 412.5 a6.25 6.25 0 1 0 12.5 0 a6.25 6.25 0 1 0 -12.5 0zM731.25 387.5 a6.25 6.25 0 1 0 12.5 0 a6.25 6.25 0 1 0 -12.5 0z" fill="rgba(0, 255, 35, 1)"></path><path d="M662.5 137.5L637.5 112.5M712.5 137.5L687.5 112.5L662.5 112.5L637.5 87.5L612.5 87.5M687.5 137.5L662.5 162.5M787.5 162.5L762.5 162.5L737.5 137.5L712.5 137.5L687.5 137.5L662.5 137.5L637.5 137.5" stroke="rgba(0, 255, 35, 1)" stroke-width="4.17"></path><path d="M631.25 137.5 a6.25 6.25 0 1 0 12.5 0 a6.25 6.25 0 1 0 -12.5 0zM631.25 112.5 a6.25 6.25 0 1 0 12.5 0 a6.25 6.25 0 1 0 -12.5 0zM606.25 87.5 a6.25 6.25 0 1 0 12.5 0 a6.25 6.25 0 1 0 -12.5 0zM656.25 162.5 a6.25 6.25 0 1 0 12.5 0 a6.25 6.25 0 1 0 -12.5 0z" fill="rgba(0, 255, 35, 1)"></path></g></g><defs><mask id="SvgjsMask1049"><rect width="768" height="560" fill="#ffffff"></rect></mask><mask id="SvgjsMask1050"><rect width="768" height="560" fill="white"></rect><path d="M509.37 312.5 a3.13 3.13 0 1 0 6.26 0 a3.13 3.13 0 1 0 -6.26 0zM634.37 337.5 a3.13 3.13 0 1 0 6.26 0 a3.13 3.13 0 1 0 -6.26 0zM509.37 287.5 a3.13 3.13 0 1 0 6.26 0 a3.13 3.13 0 1 0 -6.26 0zM559.37 287.5 a3.13 3.13 0 1 0 6.26 0 a3.13 3.13 0 1 0 -6.26 0z" fill="black"></path><path d="M459.37 262.5 a3.13 3.13 0 1 0 6.26 0 a3.13 3.13 0 1 0 -6.26 0zM459.37 237.5 a3.13 3.13 0 1 0 6.26 0 a3.13 3.13 0 1 0 -6.26 0zM484.37 212.5 a3.13 3.13 0 1 0 6.26 0 a3.13 3.13 0 1 0 -6.26 0zM609.37 287.5 a3.13 3.13 0 1 0 6.26 0 a3.13 3.13 0 1 0 -6.26 0z" fill="black"></path><path d="M634.37 237.5 a3.13 3.13 0 1 0 6.26 0 a3.13 3.13 0 1 0 -6.26 0z" fill="black"></path><path d="M559.37 337.5 a3.13 3.13 0 1 0 6.26 0 a3.13 3.13 0 1 0 -6.26 0zM684.37 337.5 a3.13 3.13 0 1 0 6.26 0 a3.13 3.13 0 1 0 -6.26 0zM534.37 362.5 a3.13 3.13 0 1 0 6.26 0 a3.13 3.13 0 1 0 -6.26 0zM734.37 312.5 a3.13 3.13 0 1 0 6.26 0 a3.13 3.13 0 1 0 -6.26 0z" fill="black"></path><path d="M634.37 212.5 a3.13 3.13 0 1 0 6.26 0 a3.13 3.13 0 1 0 -6.26 0z" fill="black"></path><path d="M684.37 387.5 a3.13 3.13 0 1 0 6.26 0 a3.13 3.13 0 1 0 -6.26 0zM659.37 412.5 a3.13 3.13 0 1 0 6.26 0 a3.13 3.13 0 1 0 -6.26 0z" fill="black"></path><path d="M434.37 187.5 a3.13 3.13 0 1 0 6.26 0 a3.13 3.13 0 1 0 -6.26 0zM434.37 162.5 a3.13 3.13 0 1 0 6.26 0 a3.13 3.13 0 1 0 -6.26 0zM634.37 162.5 a3.13 3.13 0 1 0 6.26 0 a3.13 3.13 0 1 0 -6.26 0zM559.37 162.5 a3.13 3.13 0 1 0 6.26 0 a3.13 3.13 0 1 0 -6.26 0z" fill="black"></path><path d="M734.37 412.5 a3.13 3.13 0 1 0 6.26 0 a3.13 3.13 0 1 0 -6.26 0zM734.37 387.5 a3.13 3.13 0 1 0 6.26 0 a3.13 3.13 0 1 0 -6.26 0z" fill="black"></path><path d="M634.37 137.5 a3.13 3.13 0 1 0 6.26 0 a3.13 3.13 0 1 0 -6.26 0zM634.37 112.5 a3.13 3.13 0 1 0 6.26 0 a3.13 3.13 0 1 0 -6.26 0zM609.37 87.5 a3.13 3.13 0 1 0 6.26 0 a3.13 3.13 0 1 0 -6.26 0zM659.37 162.5 a3.13 3.13 0 1 0 6.26 0 a3.13 3.13 0 1 0 -6.26 0z" fill="black"></path></mask></defs></svg>