<svg xmlns="http://www.w3.org/2000/svg" version="1.1" xmlns:xlink="http://www.w3.org/1999/xlink" xmlns:svgjs="http://svgjs.com/svgjs" width="574" height="560" preserveAspectRatio="none" viewBox="0 0 574 560"><g mask="url(&quot;#SvgjsMask1055&quot;)" fill="none"><rect width="574" height="560" x="0" y="0" fill="rgba(26, 27, 26, 1)"></rect><g mask="url(&quot;#SvgjsMask1056&quot;)"><path d="M562.5 287.5L537.5 262.5M537.5 287.5L512.5 287.5L487.5 287.5L462.5 287.5M587.5 287.5L562.5 287.5L537.5 287.5L512.5 262.5L487.5 262.5" stroke="rgba(0, 255, 35, 1)" stroke-width="4.17"></path><path d="M481.25 262.5 a6.25 6.25 0 1 0 12.5 0 a6.25 6.25 0 1 0 -12.5 0zM531.25 262.5 a6.25 6.25 0 1 0 12.5 0 a6.25 6.25 0 1 0 -12.5 0zM456.25 287.5 a6.25 6.25 0 1 0 12.5 0 a6.25 6.25 0 1 0 -12.5 0z" fill="rgba(0, 255, 35, 1)"></path><path d="M462.5 237.5L437.5 212.5M587.5 262.5L562.5 237.5L537.5 237.5L512.5 237.5L487.5 237.5L462.5 237.5L437.5 237.5" stroke="rgba(0, 255, 35, 1)" stroke-width="4.17"></path><path d="M431.25 237.5 a6.25 6.25 0 1 0 12.5 0 a6.25 6.25 0 1 0 -12.5 0zM431.25 212.5 a6.25 6.25 0 1 0 12.5 0 a6.25 6.25 0 1 0 -12.5 0z" fill="rgba(0, 255, 35, 1)"></path><path d="M587.5 312.5L562.5 312.5L537.5 312.5" stroke="rgba(0, 255, 35, 1)" stroke-width="4.17"></path><path d="M531.25 312.5 a6.25 6.25 0 1 0 12.5 0 a6.25 6.25 0 1 0 -12.5 0z" fill="rgba(0, 255, 35, 1)"></path><path d="M537.5 212.5L512.5 187.5M587.5 212.5L562.5 212.5L537.5 212.5L512.5 212.5L487.5 212.5" stroke="rgba(0, 255, 35, 1)" stroke-width="4.17"></path><path d="M481.25 212.5 a6.25 6.25 0 1 0 12.5 0 a6.25 6.25 0 1 0 -12.5 0zM506.25 187.5 a6.25 6.25 0 1 0 12.5 0 a6.25 6.25 0 1 0 -12.5 0z" fill="rgba(0, 255, 35, 1)"></path><path d="M512.5 362.5L487.5 362.5L462.5 362.5M537.5 362.5L512.5 337.5L487.5 337.5M562.5 362.5L537.5 337.5M587.5 362.5L562.5 362.5L537.5 362.5L512.5 362.5L487.5 387.5L462.5 387.5L437.5 387.5L412.5 387.5" stroke="rgba(0, 255, 35, 1)" stroke-width="4.17"></path><path d="M406.25 387.5 a6.25 6.25 0 1 0 12.5 0 a6.25 6.25 0 1 0 -12.5 0zM456.25 362.5 a6.25 6.25 0 1 0 12.5 0 a6.25 6.25 0 1 0 -12.5 0zM481.25 337.5 a6.25 6.25 0 1 0 12.5 0 a6.25 6.25 0 1 0 -12.5 0zM531.25 337.5 a6.25 6.25 0 1 0 12.5 0 a6.25 6.25 0 1 0 -12.5 0z" fill="rgba(0, 255, 35, 1)"></path><path d="M587.5 187.5L562.5 187.5" stroke="rgba(0, 255, 35, 1)" stroke-width="4.17"></path><path d="M556.25 187.5 a6.25 6.25 0 1 0 12.5 0 a6.25 6.25 0 1 0 -12.5 0z" fill="rgba(0, 255, 35, 1)"></path><path d="M487.5 412.5L462.5 437.5L437.5 437.5L412.5 437.5L387.5 437.5M587.5 387.5L562.5 387.5L537.5 387.5L512.5 387.5L487.5 412.5L462.5 412.5L437.5 412.5L412.5 412.5" stroke="rgba(0, 255, 35, 1)" stroke-width="4.17"></path><path d="M406.25 412.5 a6.25 6.25 0 1 0 12.5 0 a6.25 6.25 0 1 0 -12.5 0zM381.25 437.5 a6.25 6.25 0 1 0 12.5 0 a6.25 6.25 0 1 0 -12.5 0z" fill="rgba(0, 255, 35, 1)"></path><path d="M562.5 162.5L537.5 137.5L512.5 137.5L487.5 137.5M437.5 162.5L412.5 137.5L387.5 137.5M487.5 162.5L462.5 187.5M587.5 162.5L562.5 162.5L537.5 162.5L512.5 162.5L487.5 162.5L462.5 162.5L437.5 162.5L412.5 162.5L387.5 162.5L362.5 162.5" stroke="rgba(0, 255, 35, 1)" stroke-width="4.17"></path><path d="M356.25 162.5 a6.25 6.25 0 1 0 12.5 0 a6.25 6.25 0 1 0 -12.5 0zM481.25 137.5 a6.25 6.25 0 1 0 12.5 0 a6.25 6.25 0 1 0 -12.5 0zM381.25 137.5 a6.25 6.25 0 1 0 12.5 0 a6.25 6.25 0 1 0 -12.5 0zM456.25 187.5 a6.25 6.25 0 1 0 12.5 0 a6.25 6.25 0 1 0 -12.5 0z" fill="rgba(0, 255, 35, 1)"></path></g></g><defs><mask id="SvgjsMask1055"><rect width="574" height="560" fill="#ffffff"></rect></mask><mask id="SvgjsMask1056"><rect width="574" height="560" fill="white"></rect><path d="M484.37 262.5 a3.13 3.13 0 1 0 6.26 0 a3.13 3.13 0 1 0 -6.26 0zM534.37 262.5 a3.13 3.13 0 1 0 6.26 0 a3.13 3.13 0 1 0 -6.26 0zM459.37 287.5 a3.13 3.13 0 1 0 6.26 0 a3.13 3.13 0 1 0 -6.26 0z" fill="black"></path><path d="M434.37 237.5 a3.13 3.13 0 1 0 6.26 0 a3.13 3.13 0 1 0 -6.26 0zM434.37 212.5 a3.13 3.13 0 1 0 6.26 0 a3.13 3.13 0 1 0 -6.26 0z" fill="black"></path><path d="M534.37 312.5 a3.13 3.13 0 1 0 6.26 0 a3.13 3.13 0 1 0 -6.26 0z" fill="black"></path><path d="M484.37 212.5 a3.13 3.13 0 1 0 6.26 0 a3.13 3.13 0 1 0 -6.26 0zM509.37 187.5 a3.13 3.13 0 1 0 6.26 0 a3.13 3.13 0 1 0 -6.26 0z" fill="black"></path><path d="M409.37 387.5 a3.13 3.13 0 1 0 6.26 0 a3.13 3.13 0 1 0 -6.26 0zM459.37 362.5 a3.13 3.13 0 1 0 6.26 0 a3.13 3.13 0 1 0 -6.26 0zM484.37 337.5 a3.13 3.13 0 1 0 6.26 0 a3.13 3.13 0 1 0 -6.26 0zM534.37 337.5 a3.13 3.13 0 1 0 6.26 0 a3.13 3.13 0 1 0 -6.26 0z" fill="black"></path><path d="M559.37 187.5 a3.13 3.13 0 1 0 6.26 0 a3.13 3.13 0 1 0 -6.26 0z" fill="black"></path><path d="M409.37 412.5 a3.13 3.13 0 1 0 6.26 0 a3.13 3.13 0 1 0 -6.26 0zM384.37 437.5 a3.13 3.13 0 1 0 6.26 0 a3.13 3.13 0 1 0 -6.26 0z" fill="black"></path><path d="M359.37 162.5 a3.13 3.13 0 1 0 6.26 0 a3.13 3.13 0 1 0 -6.26 0zM484.37 137.5 a3.13 3.13 0 1 0 6.26 0 a3.13 3.13 0 1 0 -6.26 0zM384.37 137.5 a3.13 3.13 0 1 0 6.26 0 a3.13 3.13 0 1 0 -6.26 0zM459.37 187.5 a3.13 3.13 0 1 0 6.26 0 a3.13 3.13 0 1 0 -6.26 0z" fill="black"></path></mask></defs></svg>