<svg xmlns="http://www.w3.org/2000/svg" version="1.1" xmlns:xlink="http://www.w3.org/1999/xlink" xmlns:svgjs="http://svgjs.com/svgjs" width="375" height="560" preserveAspectRatio="none" viewBox="0 0 375 560"><g mask="url(&quot;#SvgjsMask1063&quot;)" fill="none"><rect width="375" height="560" x="0" y="0" fill="rgba(26, 27, 26, 1)"></rect><g mask="url(&quot;#SvgjsMask1064&quot;)"><path d="M412.5 287.5L387.5 287.5L362.5 287.5" stroke="rgba(0, 255, 35, 1)" stroke-width="4.17"></path><path d="M356.25 287.5 a6.25 6.25 0 1 0 12.5 0 a6.25 6.25 0 1 0 -12.5 0z" fill="rgba(0, 255, 35, 1)"></path><path d="M337.5 262.5L312.5 287.5L287.5 287.5M412.5 262.5L387.5 262.5L362.5 262.5L337.5 262.5L312.5 262.5L287.5 237.5" stroke="rgba(0, 255, 35, 1)" stroke-width="4.17"></path><path d="M281.25 237.5 a6.25 6.25 0 1 0 12.5 0 a6.25 6.25 0 1 0 -12.5 0zM281.25 287.5 a6.25 6.25 0 1 0 12.5 0 a6.25 6.25 0 1 0 -12.5 0z" fill="rgba(0, 255, 35, 1)"></path><path d="M362.5 312.5L337.5 312.5M412.5 312.5L387.5 312.5L362.5 312.5L337.5 337.5" stroke="rgba(0, 255, 35, 1)" stroke-width="4.17"></path><path d="M331.25 337.5 a6.25 6.25 0 1 0 12.5 0 a6.25 6.25 0 1 0 -12.5 0zM331.25 312.5 a6.25 6.25 0 1 0 12.5 0 a6.25 6.25 0 1 0 -12.5 0z" fill="rgba(0, 255, 35, 1)"></path><path d="M362.5 237.5L337.5 212.5L312.5 212.5M412.5 237.5L387.5 237.5L362.5 237.5L337.5 237.5L312.5 237.5L287.5 212.5L262.5 212.5" stroke="rgba(0, 255, 35, 1)" stroke-width="4.17"></path><path d="M256.25 212.5 a6.25 6.25 0 1 0 12.5 0 a6.25 6.25 0 1 0 -12.5 0zM306.25 212.5 a6.25 6.25 0 1 0 12.5 0 a6.25 6.25 0 1 0 -12.5 0z" fill="rgba(0, 255, 35, 1)"></path><path d="M412.5 337.5L387.5 337.5L362.5 337.5" stroke="rgba(0, 255, 35, 1)" stroke-width="4.17"></path><path d="M356.25 337.5 a6.25 6.25 0 1 0 12.5 0 a6.25 6.25 0 1 0 -12.5 0z" fill="rgba(0, 255, 35, 1)"></path><path d="M287.5 187.5L262.5 162.5M412.5 212.5L387.5 212.5L362.5 187.5L337.5 187.5L312.5 187.5L287.5 187.5L262.5 187.5" stroke="rgba(0, 255, 35, 1)" stroke-width="4.17"></path><path d="M256.25 187.5 a6.25 6.25 0 1 0 12.5 0 a6.25 6.25 0 1 0 -12.5 0zM256.25 162.5 a6.25 6.25 0 1 0 12.5 0 a6.25 6.25 0 1 0 -12.5 0z" fill="rgba(0, 255, 35, 1)"></path><path d="M412.5 362.5L387.5 362.5" stroke="rgba(0, 255, 35, 1)" stroke-width="4.17"></path><path d="M381.25 362.5 a6.25 6.25 0 1 0 12.5 0 a6.25 6.25 0 1 0 -12.5 0z" fill="rgba(0, 255, 35, 1)"></path><path d="M412.5 187.5L387.5 187.5L362.5 162.5L337.5 162.5L312.5 162.5" stroke="rgba(0, 255, 35, 1)" stroke-width="4.17"></path><path d="M306.25 162.5 a6.25 6.25 0 1 0 12.5 0 a6.25 6.25 0 1 0 -12.5 0z" fill="rgba(0, 255, 35, 1)"></path><path d="M337.5 387.5L312.5 412.5L287.5 412.5M387.5 387.5L362.5 412.5L337.5 437.5L312.5 462.5L287.5 462.5M362.5 387.5L337.5 362.5M412.5 387.5L387.5 387.5L362.5 387.5L337.5 387.5L312.5 387.5" stroke="rgba(0, 255, 35, 1)" stroke-width="4.17"></path><path d="M306.25 387.5 a6.25 6.25 0 1 0 12.5 0 a6.25 6.25 0 1 0 -12.5 0zM281.25 412.5 a6.25 6.25 0 1 0 12.5 0 a6.25 6.25 0 1 0 -12.5 0zM281.25 462.5 a6.25 6.25 0 1 0 12.5 0 a6.25 6.25 0 1 0 -12.5 0zM331.25 362.5 a6.25 6.25 0 1 0 12.5 0 a6.25 6.25 0 1 0 -12.5 0z" fill="rgba(0, 255, 35, 1)"></path><path d="M337.5 137.5L312.5 112.5L287.5 112.5L262.5 112.5M362.5 137.5L337.5 112.5L312.5 87.5L287.5 87.5L262.5 87.5M412.5 162.5L387.5 162.5L362.5 137.5L337.5 137.5L312.5 137.5" stroke="rgba(0, 255, 35, 1)" stroke-width="4.17"></path><path d="M306.25 137.5 a6.25 6.25 0 1 0 12.5 0 a6.25 6.25 0 1 0 -12.5 0zM256.25 112.5 a6.25 6.25 0 1 0 12.5 0 a6.25 6.25 0 1 0 -12.5 0zM256.25 87.5 a6.25 6.25 0 1 0 12.5 0 a6.25 6.25 0 1 0 -12.5 0z" fill="rgba(0, 255, 35, 1)"></path></g></g><defs><mask id="SvgjsMask1063"><rect width="375" height="560" fill="#ffffff"></rect></mask><mask id="SvgjsMask1064"><rect width="375" height="560" fill="white"></rect><path d="M359.37 287.5 a3.13 3.13 0 1 0 6.26 0 a3.13 3.13 0 1 0 -6.26 0z" fill="black"></path><path d="M284.37 237.5 a3.13 3.13 0 1 0 6.26 0 a3.13 3.13 0 1 0 -6.26 0zM284.37 287.5 a3.13 3.13 0 1 0 6.26 0 a3.13 3.13 0 1 0 -6.26 0z" fill="black"></path><path d="M334.37 337.5 a3.13 3.13 0 1 0 6.26 0 a3.13 3.13 0 1 0 -6.26 0zM334.37 312.5 a3.13 3.13 0 1 0 6.26 0 a3.13 3.13 0 1 0 -6.26 0z" fill="black"></path><path d="M259.37 212.5 a3.13 3.13 0 1 0 6.26 0 a3.13 3.13 0 1 0 -6.26 0zM309.37 212.5 a3.13 3.13 0 1 0 6.26 0 a3.13 3.13 0 1 0 -6.26 0z" fill="black"></path><path d="M359.37 337.5 a3.13 3.13 0 1 0 6.26 0 a3.13 3.13 0 1 0 -6.26 0z" fill="black"></path><path d="M259.37 187.5 a3.13 3.13 0 1 0 6.26 0 a3.13 3.13 0 1 0 -6.26 0zM259.37 162.5 a3.13 3.13 0 1 0 6.26 0 a3.13 3.13 0 1 0 -6.26 0z" fill="black"></path><path d="M384.37 362.5 a3.13 3.13 0 1 0 6.26 0 a3.13 3.13 0 1 0 -6.26 0z" fill="black"></path><path d="M309.37 162.5 a3.13 3.13 0 1 0 6.26 0 a3.13 3.13 0 1 0 -6.26 0z" fill="black"></path><path d="M309.37 387.5 a3.13 3.13 0 1 0 6.26 0 a3.13 3.13 0 1 0 -6.26 0zM284.37 412.5 a3.13 3.13 0 1 0 6.26 0 a3.13 3.13 0 1 0 -6.26 0zM284.37 462.5 a3.13 3.13 0 1 0 6.26 0 a3.13 3.13 0 1 0 -6.26 0zM334.37 362.5 a3.13 3.13 0 1 0 6.26 0 a3.13 3.13 0 1 0 -6.26 0z" fill="black"></path><path d="M309.37 137.5 a3.13 3.13 0 1 0 6.26 0 a3.13 3.13 0 1 0 -6.26 0zM259.37 112.5 a3.13 3.13 0 1 0 6.26 0 a3.13 3.13 0 1 0 -6.26 0zM259.37 87.5 a3.13 3.13 0 1 0 6.26 0 a3.13 3.13 0 1 0 -6.26 0z" fill="black"></path></mask></defs></svg>