<svg xmlns="http://www.w3.org/2000/svg" version="1.1" xmlns:xlink="http://www.w3.org/1999/xlink" xmlns:svgjs="http://svgjs.com/svgjs" width="1440" height="560" preserveAspectRatio="none" viewBox="0 0 1440 560"><g mask="url(&quot;#SvgjsMask1043&quot;)" fill="none"><rect width="1440" height="560" x="0" y="0" fill="#0e2a47"></rect><path d="M0,334.907C68.342,324.518,144.98,353.414,202.161,314.569C259.118,275.877,268.144,198.118,294.808,134.634C320.57,73.3,350.038,15.125,355.771,-51.152C362.725,-131.545,382.223,-224.477,331.286,-287.061C280.376,-349.612,182.183,-334.276,105.36,-358.824C26.155,-384.134,-48.133,-458.977,-127.318,-433.605C-206.687,-408.174,-225.006,-304.826,-273.872,-237.311C-317.644,-176.834,-377.573,-128.791,-399.572,-57.45C-423.829,21.215,-431.061,106.749,-403.932,184.47C-375.511,265.892,-326.755,352.587,-245.938,382.686C-166.06,412.435,-84.27,347.717,0,334.907" fill="#091b2e"></path><path d="M1440 1031.3229999999999C1527.899 1041.862 1611.972 990.927 1682.858 937.894 1750.526 887.268 1797.373 816.1 1831.193 738.652 1864.578 662.198 1886.737 580.051 1875.1979999999999 497.428 1863.633 414.61699999999996 1820.992 340.504 1766.709 276.905 1712.129 212.959 1647.941 148.195 1565.064 134.072 1484.569 120.35500000000002 1415.303 187.099 1335.289 203.387 1244.785 221.81 1128.2559999999999 167.714 1065.752 235.712 1003.7080000000001 303.21 1066.408 413.781 1057.978 505.074 1050.1309999999999 590.056 982.4010000000001 675.157 1018.014 752.715 1053.63 830.279 1160.666 836.796 1231.892 883.822 1304.315 931.6379999999999 1353.833 1020.991 1440 1031.3229999999999" fill="#133960"></path></g><defs><mask id="SvgjsMask1043"><rect width="1440" height="560" fill="#ffffff"></rect></mask></defs></svg>