<svg xmlns="http://www.w3.org/2000/svg" version="1.1" xmlns:xlink="http://www.w3.org/1999/xlink" xmlns:svgjs="http://svgjs.com/svgjs" width="991" height="560" preserveAspectRatio="none" viewBox="0 0 991 560"><g mask="url(&quot;#SvgjsMask1043&quot;)" fill="none"><rect width="991" height="560" x="0" y="0" fill="rgba(26, 27, 26, 1)"></rect><g mask="url(&quot;#SvgjsMask1044&quot;)"><path d="M937.5 262.5L912.5 262.5L887.5 262.5L862.5 262.5M1012.5 262.5L987.5 262.5L962.5 262.5L937.5 262.5L912.5 237.5" stroke="rgba(0, 255, 35, 1)" stroke-width="4.17"></path><path d="M906.25 237.5 a6.25 6.25 0 1 0 12.5 0 a6.25 6.25 0 1 0 -12.5 0zM856.25 262.5 a6.25 6.25 0 1 0 12.5 0 a6.25 6.25 0 1 0 -12.5 0z" fill="rgba(0, 255, 35, 1)"></path><path d="M912.5 287.5L887.5 312.5M962.5 287.5L937.5 312.5L912.5 312.5L887.5 337.5L862.5 337.5M987.5 287.5L962.5 312.5L937.5 337.5L912.5 337.5M1012.5 312.5L987.5 287.5L962.5 287.5L937.5 287.5L912.5 287.5L887.5 287.5" stroke="rgba(0, 255, 35, 1)" stroke-width="4.17"></path><path d="M881.25 287.5 a6.25 6.25 0 1 0 12.5 0 a6.25 6.25 0 1 0 -12.5 0zM881.25 312.5 a6.25 6.25 0 1 0 12.5 0 a6.25 6.25 0 1 0 -12.5 0zM856.25 337.5 a6.25 6.25 0 1 0 12.5 0 a6.25 6.25 0 1 0 -12.5 0zM906.25 337.5 a6.25 6.25 0 1 0 12.5 0 a6.25 6.25 0 1 0 -12.5 0z" fill="rgba(0, 255, 35, 1)"></path><path d="M1012.5 237.5L987.5 237.5L962.5 237.5L937.5 237.5L912.5 212.5" stroke="rgba(0, 255, 35, 1)" stroke-width="4.17"></path><path d="M906.25 212.5 a6.25 6.25 0 1 0 12.5 0 a6.25 6.25 0 1 0 -12.5 0z" fill="rgba(0, 255, 35, 1)"></path><path d="M962.5 387.5L937.5 362.5L912.5 362.5L887.5 362.5M787.5 387.5L762.5 412.5L737.5 412.5M812.5 387.5L787.5 412.5M1012.5 337.5L987.5 362.5L962.5 387.5L937.5 387.5L912.5 387.5L887.5 387.5L862.5 387.5L837.5 387.5L812.5 387.5L787.5 387.5L762.5 387.5L737.5 387.5" stroke="rgba(0, 255, 35, 1)" stroke-width="4.17"></path><path d="M731.25 387.5 a6.25 6.25 0 1 0 12.5 0 a6.25 6.25 0 1 0 -12.5 0zM881.25 362.5 a6.25 6.25 0 1 0 12.5 0 a6.25 6.25 0 1 0 -12.5 0zM731.25 412.5 a6.25 6.25 0 1 0 12.5 0 a6.25 6.25 0 1 0 -12.5 0zM781.25 412.5 a6.25 6.25 0 1 0 12.5 0 a6.25 6.25 0 1 0 -12.5 0z" fill="rgba(0, 255, 35, 1)"></path><path d="M1012.5 212.5L987.5 212.5L962.5 212.5L937.5 212.5" stroke="rgba(0, 255, 35, 1)" stroke-width="4.17"></path><path d="M931.25 212.5 a6.25 6.25 0 1 0 12.5 0 a6.25 6.25 0 1 0 -12.5 0z" fill="rgba(0, 255, 35, 1)"></path><path d="M1012.5 187.5L987.5 187.5L962.5 187.5L937.5 187.5" stroke="rgba(0, 255, 35, 1)" stroke-width="4.17"></path><path d="M931.25 187.5 a6.25 6.25 0 1 0 12.5 0 a6.25 6.25 0 1 0 -12.5 0z" fill="rgba(0, 255, 35, 1)"></path><path d="M712.5 462.5L687.5 437.5L662.5 437.5L637.5 437.5L612.5 437.5M962.5 412.5L937.5 437.5M837.5 437.5L812.5 462.5M737.5 462.5L712.5 487.5L687.5 487.5M1012.5 387.5L987.5 387.5L962.5 412.5L937.5 412.5L912.5 412.5L887.5 412.5L862.5 412.5L837.5 437.5L812.5 437.5L787.5 437.5L762.5 437.5L737.5 462.5L712.5 462.5L687.5 462.5L662.5 462.5L637.5 487.5L612.5 487.5" stroke="rgba(0, 255, 35, 1)" stroke-width="4.17"></path><path d="M606.25 487.5 a6.25 6.25 0 1 0 12.5 0 a6.25 6.25 0 1 0 -12.5 0zM606.25 437.5 a6.25 6.25 0 1 0 12.5 0 a6.25 6.25 0 1 0 -12.5 0zM931.25 437.5 a6.25 6.25 0 1 0 12.5 0 a6.25 6.25 0 1 0 -12.5 0zM806.25 462.5 a6.25 6.25 0 1 0 12.5 0 a6.25 6.25 0 1 0 -12.5 0zM681.25 487.5 a6.25 6.25 0 1 0 12.5 0 a6.25 6.25 0 1 0 -12.5 0z" fill="rgba(0, 255, 35, 1)"></path><path d="M762.5 137.5L737.5 112.5L712.5 112.5L687.5 112.5L662.5 112.5L637.5 112.5L612.5 112.5M912.5 162.5L887.5 187.5L862.5 212.5L837.5 212.5L812.5 212.5M587.5 137.5L562.5 112.5M787.5 137.5L762.5 162.5L737.5 162.5L712.5 162.5M1012.5 162.5L987.5 162.5L962.5 162.5L937.5 162.5L912.5 162.5L887.5 162.5L862.5 162.5L837.5 162.5L812.5 162.5L787.5 137.5L762.5 137.5L737.5 137.5L712.5 137.5L687.5 137.5L662.5 137.5L637.5 137.5L612.5 137.5L587.5 137.5L562.5 137.5" stroke="rgba(0, 255, 35, 1)" stroke-width="4.17"></path><path d="M556.25 137.5 a6.25 6.25 0 1 0 12.5 0 a6.25 6.25 0 1 0 -12.5 0zM606.25 112.5 a6.25 6.25 0 1 0 12.5 0 a6.25 6.25 0 1 0 -12.5 0zM806.25 212.5 a6.25 6.25 0 1 0 12.5 0 a6.25 6.25 0 1 0 -12.5 0zM556.25 112.5 a6.25 6.25 0 1 0 12.5 0 a6.25 6.25 0 1 0 -12.5 0zM706.25 162.5 a6.25 6.25 0 1 0 12.5 0 a6.25 6.25 0 1 0 -12.5 0z" fill="rgba(0, 255, 35, 1)"></path></g></g><defs><mask id="SvgjsMask1043"><rect width="991" height="560" fill="#ffffff"></rect></mask><mask id="SvgjsMask1044"><rect width="991" height="560" fill="white"></rect><path d="M909.37 237.5 a3.13 3.13 0 1 0 6.26 0 a3.13 3.13 0 1 0 -6.26 0zM859.37 262.5 a3.13 3.13 0 1 0 6.26 0 a3.13 3.13 0 1 0 -6.26 0z" fill="black"></path><path d="M884.37 287.5 a3.13 3.13 0 1 0 6.26 0 a3.13 3.13 0 1 0 -6.26 0zM884.37 312.5 a3.13 3.13 0 1 0 6.26 0 a3.13 3.13 0 1 0 -6.26 0zM859.37 337.5 a3.13 3.13 0 1 0 6.26 0 a3.13 3.13 0 1 0 -6.26 0zM909.37 337.5 a3.13 3.13 0 1 0 6.26 0 a3.13 3.13 0 1 0 -6.26 0z" fill="black"></path><path d="M909.37 212.5 a3.13 3.13 0 1 0 6.26 0 a3.13 3.13 0 1 0 -6.26 0z" fill="black"></path><path d="M734.37 387.5 a3.13 3.13 0 1 0 6.26 0 a3.13 3.13 0 1 0 -6.26 0zM884.37 362.5 a3.13 3.13 0 1 0 6.26 0 a3.13 3.13 0 1 0 -6.26 0zM734.37 412.5 a3.13 3.13 0 1 0 6.26 0 a3.13 3.13 0 1 0 -6.26 0zM784.37 412.5 a3.13 3.13 0 1 0 6.26 0 a3.13 3.13 0 1 0 -6.26 0z" fill="black"></path><path d="M934.37 212.5 a3.13 3.13 0 1 0 6.26 0 a3.13 3.13 0 1 0 -6.26 0z" fill="black"></path><path d="M934.37 187.5 a3.13 3.13 0 1 0 6.26 0 a3.13 3.13 0 1 0 -6.26 0z" fill="black"></path><path d="M609.37 487.5 a3.13 3.13 0 1 0 6.26 0 a3.13 3.13 0 1 0 -6.26 0zM609.37 437.5 a3.13 3.13 0 1 0 6.26 0 a3.13 3.13 0 1 0 -6.26 0zM934.37 437.5 a3.13 3.13 0 1 0 6.26 0 a3.13 3.13 0 1 0 -6.26 0zM809.37 462.5 a3.13 3.13 0 1 0 6.26 0 a3.13 3.13 0 1 0 -6.26 0zM684.37 487.5 a3.13 3.13 0 1 0 6.26 0 a3.13 3.13 0 1 0 -6.26 0z" fill="black"></path><path d="M559.37 137.5 a3.13 3.13 0 1 0 6.26 0 a3.13 3.13 0 1 0 -6.26 0zM609.37 112.5 a3.13 3.13 0 1 0 6.26 0 a3.13 3.13 0 1 0 -6.26 0zM809.37 212.5 a3.13 3.13 0 1 0 6.26 0 a3.13 3.13 0 1 0 -6.26 0zM559.37 112.5 a3.13 3.13 0 1 0 6.26 0 a3.13 3.13 0 1 0 -6.26 0zM709.37 162.5 a3.13 3.13 0 1 0 6.26 0 a3.13 3.13 0 1 0 -6.26 0z" fill="black"></path></mask></defs></svg>